<svg width="121" height="121" viewBox="0 0 121 121" fill="none" xmlns="http://www.w3.org/2000/svg">
<mask id="mask0_42_15" style="mask-type:alpha" maskUnits="userSpaceOnUse" x="0" y="0" width="121" height="121">
<rect x="0.383057" y="0.124512" width="120" height="120" fill="#D9D9D9"/>
</mask>
<g mask="url(#mask0_42_15)">
<path d="M53.3831 69.1245L42.5081 58.2495C41.5914 57.3328 40.4664 56.8745 39.1331 56.8745C37.7997 56.8745 36.6331 57.3745 35.6331 58.3745C34.7164 59.2912 34.2581 60.4578 34.2581 61.8745C34.2581 63.2912 34.7164 64.4578 35.6331 65.3745L49.8831 79.6245C50.7997 80.5412 51.9664 80.9995 53.3831 80.9995C54.7997 80.9995 55.9664 80.5412 56.8831 79.6245L85.2581 51.2495C86.1747 50.3328 86.6331 49.2078 86.6331 47.8745C86.6331 46.5412 86.1331 45.3745 85.1331 44.3745C84.2164 43.4578 83.0497 42.9995 81.6331 42.9995C80.2164 42.9995 79.0497 43.4578 78.1331 44.3745L53.3831 69.1245ZM60.3831 110.125C53.4664 110.125 46.9664 108.811 40.8831 106.185C34.7997 103.561 29.5081 99.9995 25.0081 95.4995C20.5081 90.9995 16.9464 85.7078 14.3231 79.6245C11.6964 73.5412 10.3831 67.0412 10.3831 60.1245C10.3831 53.2078 11.6964 46.7078 14.3231 40.6245C16.9464 34.5412 20.5081 29.2495 25.0081 24.7495C29.5081 20.2495 34.7997 16.6862 40.8831 14.0595C46.9664 11.4362 53.4664 10.1245 60.3831 10.1245C67.2997 10.1245 73.7997 11.4362 79.8831 14.0595C85.9664 16.6862 91.2581 20.2495 95.7581 24.7495C100.258 29.2495 103.82 34.5412 106.443 40.6245C109.07 46.7078 110.383 53.2078 110.383 60.1245C110.383 67.0412 109.07 73.5412 106.443 79.6245C103.82 85.7078 100.258 90.9995 95.7581 95.4995C91.2581 99.9995 85.9664 103.561 79.8831 106.185C73.7997 108.811 67.2997 110.125 60.3831 110.125Z" fill="#F4CE14"/>
</g>
</svg>
